<?xml version="1.0" encoding="utf-8"?>
<!-- Generator: Adobe Illustrator 15.0.0, SVG Export Plug-In . SVG Version: 6.00 Build 0)  -->
<!DOCTYPE svg PUBLIC "-//W3C//DTD SVG 1.1//EN" "http://www.w3.org/Graphics/SVG/1.1/DTD/svg11.dtd">
<svg version="1.1" id="Layer_1" xmlns="http://www.w3.org/2000/svg" xmlns:xlink="http://www.w3.org/1999/xlink" x="0px" y="0px"
	 width="1361px" height="619.902px" viewBox="0 -121.495 1361 619.902" enable-background="new 0 -121.495 1361 619.902"
	 xml:space="preserve">
<g id="Layer_1_1_">
	<g>
		<g>
			<g>
				<defs>
					<rect id="SVGID_1_" y="-121.493" width="1361" height="619.9"/>
				</defs>
				<clipPath id="SVGID_2_">
					<use xlink:href="#SVGID_1_"  overflow="visible"/>
				</clipPath>
				<path clip-path="url(#SVGID_2_)" fill="#FFF1D3" d="M0,451.192c0,0,129.792-104.552,766,11
					c189.135,30.315,470.46,73.114,595-103.999v-479.688H0V451.192z"/>
			</g>
		</g>
		<g>
			<g>
				<defs>
					<rect id="SVGID_3_" y="-121.493" width="1361" height="619.9"/>
				</defs>
				<clipPath id="SVGID_4_">
					<use xlink:href="#SVGID_3_"  overflow="visible"/>
				</clipPath>
				<path clip-path="url(#SVGID_4_)" fill="#FFF1D3" d="M812.516,459.79c-129.672-21.656-351.164-61.832-609.953-54.143
					c-31.063,0.711-64.789,4.475-64.789,4.475C24.071,422.304,0,451.765,0,451.765c29.813-16.817,76.758-26.559,132.383-31.426
					c29.227-1.602,67.039-3.565,67.039-3.565c156.36-3.729,348.469,18.866,434.133,30.104
					c141.867,18.521,341.721,67.723,501.773,46.168c172.289-23.19,225.305-135.362,225.305-135.362
					C1226.18,537.251,944.36,479.364,812.516,459.79"/>
			</g>
		</g>
	</g>
</g>
<g id="Layer_2" display="none">
</g>
</svg>
